<?xml version="1.0" standalone="no"?>
<!DOCTYPE svg PUBLIC "-//W3C//DTD SVG 20010904//EN"
 "http://www.w3.org/TR/2001/REC-SVG-20010904/DTD/svg10.dtd">
<svg version="1.0" xmlns="http://www.w3.org/2000/svg"
 width="200.000000pt" height="200.000000pt" viewBox="0 0 200.000000 200.000000"
 preserveAspectRatio="xMidYMid meet">

<g transform="translate(0.000000,200.000000) scale(0.100000,-0.100000)"
fill="#15023a" stroke="none">
<path d="M855 1696 c-152 -36 -253 -92 -360 -200 -65 -66 -90 -99 -127 -176
-74 -149 -78 -186 -78 -640 l0 -390 414 0 c230 0 436 4 465 10 120 22 252 93
342 183 44 44 72 84 109 160 71 144 85 205 84 362 0 115 -4 140 -28 210 -39
114 -98 209 -180 290 -135 132 -281 194 -471 201 -72 2 -131 -1 -170 -10z m52
-220 c-21 -19 -27 -34 -27 -66 0 -56 -24 -48 -28 8 -3 36 1 47 28 74 23 22 34
28 42 20 9 -9 4 -18 -15 -36z m129 -1 c17 -27 16 -96 -3 -102 -8 -3 -11 9 -10
37 1 35 -4 47 -26 66 -16 13 -25 29 -22 34 9 14 41 -5 61 -35z m-46 -44 c5
-11 10 -33 10 -49 0 -30 29 -52 70 -52 11 0 20 -4 20 -10 0 -5 8 -10 18 -10
10 0 23 -5 30 -12 17 -17 15 -153 -2 -203 l-14 -40 -101 -3 c-88 -2 -101 -1
-101 14 0 9 -13 32 -30 50 -48 55 -73 110 -60 134 15 28 45 25 69 -6 l21 -27
0 105 c0 67 4 108 12 116 18 18 46 14 58 -7z m240 -496 c0 -16 6 -25 15 -25 8
0 15 -7 15 -15 0 -8 -7 -15 -15 -15 -13 0 -15 -13 -13 -72 2 -52 7 -72 16 -71
6 2 12 -4 12 -13 0 -11 -8 -14 -27 -12 -28 3 -28 4 -31 86 -2 45 -7 82 -12 82
-6 0 -10 7 -10 15 0 8 5 15 10 15 6 0 10 8 10 18 0 10 3 22 7 25 13 14 23 6
23 -18z m-580 5 c0 -5 -11 -10 -25 -10 -22 0 -25 -4 -25 -40 0 -33 3 -40 20
-40 11 0 20 -7 20 -15 0 -8 -9 -15 -20 -15 -17 0 -20 -7 -20 -40 0 -36 3 -40
25 -40 16 0 25 -6 25 -15 0 -11 -12 -15 -45 -15 l-45 0 0 120 0 120 45 0 c25
0 45 -4 45 -10z m55 -40 c5 -8 11 -7 21 1 19 15 46 -7 42 -34 -4 -28 -28 -34
-28 -7 0 13 -5 20 -12 18 -9 -3 -14 -32 -16 -86 -2 -64 -6 -82 -17 -82 -12 0
-15 19 -15 100 0 91 8 118 25 90z m115 0 c0 -6 10 -5 25 2 44 20 55 -2 55
-103 0 -71 -3 -89 -15 -89 -11 0 -15 18 -17 82 -3 70 -6 83 -20 86 -16 3 -18
-6 -18 -82 0 -79 -2 -86 -20 -86 -19 0 -20 7 -20 100 0 82 3 100 15 100 8 0
15 -4 15 -10z m204 -6 c9 -9 16 -32 16 -55 0 -38 -1 -39 -35 -39 -32 0 -35 -3
-35 -29 0 -35 29 -52 37 -21 5 21 33 28 33 9 0 -26 -22 -49 -48 -49 -43 0 -52
17 -52 96 0 77 13 104 50 104 10 0 26 -7 34 -16z m117 6 c23 -13 26 -60 4 -60
-8 0 -15 9 -15 20 0 11 -7 20 -15 20 -24 0 -17 -30 15 -67 48 -55 34 -108 -27
-101 -22 2 -29 9 -31 31 -4 32 8 35 26 7 7 -12 17 -18 22 -15 16 10 12 20 -20
60 -55 69 -27 141 41 105z m-611 -28 c0 -11 -13 -25 -32 -33 l-32 -16 32 -18
c27 -16 44 -45 27 -45 -15 0 -85 52 -85 63 0 9 67 60 88 66 1 1 2 -7 2 -17z
m180 -202 c0 -22 -28 -230 -36 -272 -3 -16 -12 -28 -20 -28 -17 0 -18 -11 6
160 11 79 20 147 20 152 0 4 7 8 15 8 8 0 15 -9 15 -20z m-179 -83 c10 -43 20
-98 24 -123 6 -40 4 -44 -14 -44 -14 0 -21 6 -21 20 0 15 -7 20 -25 20 -18 0
-25 -5 -25 -20 0 -13 -7 -20 -20 -20 -24 0 -24 -8 0 120 25 130 26 132 47 128
14 -2 22 -23 34 -81z m278 -43 c11 -10 6 -17 -29 -43 -48 -35 -60 -38 -60 -16
0 8 14 22 31 31 l31 16 -31 19 c-17 10 -31 26 -31 35 0 13 6 12 38 -7 20 -12
43 -28 51 -35z m-189 -99 c0 -18 -5 -25 -20 -25 -15 0 -20 7 -20 25 0 18 5 25
20 25 15 0 20 -7 20 -25z"/>
<path d="M940 1285 c0 -81 -4 -135 -10 -135 -5 0 -19 18 -30 39 -20 41 -37 57
-47 47 -7 -7 40 -86 66 -110 12 -11 21 -27 21 -38 0 -16 9 -18 78 -18 l78 0
12 33 c15 41 16 177 2 177 -5 0 -10 -12 -10 -26 0 -40 -25 -23 -28 19 -4 46
-20 49 -24 5 -4 -45 -22 -42 -26 5 -2 20 -7 37 -12 37 -5 0 -10 -17 -12 -37
-6 -69 -23 -34 -26 52 -2 67 -6 85 -17 85 -12 0 -15 -23 -15 -135z"/>
<path d="M977 874 c-4 -4 -7 -18 -7 -31 0 -18 5 -24 18 -21 10 2 17 12 17 27
0 24 -15 37 -28 25z"/>
<path d="M491 585 c-1 -11 -4 -37 -7 -57 -5 -31 -4 -38 10 -38 11 0 16 8 15
28 -2 38 -16 93 -18 67z"/>
</g>
</svg>
